HIERARCHY
ROOT Hips
{
  OFFSET 0.000000 95.000000 0.000000
  CHANNELS 6 Xposition Yposition Zposition Zrotation Xrotation Yrotation
  JOINT Spine
  {
    OFFSET 0.000000 10.000000 0.000000
    CHANNELS 3 Zrotation Xrotation Yrotation
    JOINT Spine1
    {
      OFFSET 0.000000 12.000000 0.000000
      CHANNELS 3 Zrotation Xrotation Yrotation
      JOINT Spine2
      {
        OFFSET 0.000000 12.000000 0.000000
        CHANNELS 3 Zrotation Xrotation Yrotation
        JOINT Neck
        {
          OFFSET 0.000000 10.000000 0.000000
          CHANNELS 3 Zrotation Xrotation Yrotation
          JOINT Head
          {
            OFFSET 0.000000 8.000000 0.000000
            CHANNELS 3 Zrotation Xrotation Yrotation
            End Site
            {
              OFFSET 0.000000 10.000000 0.000000
            }
          }
        }
        JOINT LeftShoulder
        {
          OFFSET 6.000000 8.000000 0.000000
          CHANNELS 3 Zrotation Xrotation Yrotation
          JOINT LeftArm
          {
            OFFSET 12.000000 0.000000 0.000000
            CHANNELS 3 Zrotation Xrotation Yrotation
            JOINT LeftForeArm
            {
              OFFSET 24.000000 0.000000 0.000000
              CHANNELS 3 Zrotation Xrotation Yrotation
              JOINT LeftHand
              {
                OFFSET 22.000000 0.000000 0.000000
                CHANNELS 3 Zrotation Xrotation Yrotation
                JOINT LeftHandThumb1
                {
                  OFFSET 1.800000 -1.400000 0.500000
                  CHANNELS 3 Zrotation Xrotation Yrotation
                  JOINT LeftHandThumb2
                  {
                    OFFSET 2.400000 0.000000 0.000000
                    CHANNELS 3 Zrotation Xrotation Yrotation
                    JOINT LeftHandThumb3
                    {
                      OFFSET 1.900000 0.000000 0.000000
                      CHANNELS 3 Zrotation Xrotation Yrotation
                      End Site
                      {
                        OFFSET 1.600000 0.000000 0.000000
                      }
                    }
                  }
                }
                JOINT LeftHandIndex1
                {
                  OFFSET 6.600000 1.200000 0.300000
                  CHANNELS 3 Zrotation Xrotation Yrotation
                  JOINT LeftHandIndex2
                  {
                    OFFSET 2.000000 0.000000 0.000000
                    CHANNELS 3 Zrotation Xrotation Yrotation
                    JOINT LeftHandIndex3
                    {
                      OFFSET 1.200000 0.000000 0.000000
                      CHANNELS 3 Zrotation Xrotation Yrotation
                      End Site
                      {
                        OFFSET 1.000000 0.000000 0.000000
                      }
                    }
                  }
                }
                JOINT LeftHandMiddle1
                {
                  OFFSET 7.200000 0.000000 0.300000
                  CHANNELS 3 Zrotation Xrotation Yrotation
                  JOINT LeftHandMiddle2
                  {
                    OFFSET 3.000000 0.000000 0.000000
                    CHANNELS 3 Zrotation Xrotation Yrotation
                    JOINT LeftHandMiddle3
                    {
                      OFFSET 2.000000 0.000000 0.000000
                      CHANNELS 3 Zrotation Xrotation Yrotation
                      End Site
                      {
                        OFFSET 1.600000 0.000000 0.000000
                      }
                    }
                  }
                }
                JOINT LeftHandRing1
                {
                  OFFSET 7.100000 -1.000000 0.400000
                  CHANNELS 3 Zrotation Xrotation Yrotation
                  JOINT LeftHandRing2
                  {
                    OFFSET 2.600000 0.000000 0.000000
                    CHANNELS 3 Zrotation Xrotation Yrotation
                    JOINT LeftHandRing3
                    {
                      OFFSET 1.600000 0.000000 0.000000
                      CHANNELS 3 Zrotation Xrotation Yrotation
                      End Site
                      {
                        OFFSET 1.300000 0.000000 0.000000
                      }
                    }
                  }
                }
                JOINT LeftHandPinky1
                {
                  OFFSET 6.500000 -2.000000 0.500000
                  CHANNELS 3 Zrotation Xrotation Yrotation
                  JOINT LeftHandPinky2
                  {
                    OFFSET 1.900000 0.000000 0.000000
                    CHANNELS 3 Zrotation Xrotation Yrotation
                    JOINT LeftHandPinky3
                    {
                      OFFSET 1.400000 0.000000 0.000000
                      CHANNELS 3 Zrotation Xrotation Yrotation
                      End Site
                      {
                        OFFSET 1.300000 0.000000 0.000000
                      }
                    }
                  }
                }
              }
            }
          }
        }
        JOINT RightShoulder
        {
          OFFSET -6.000000 8.000000 0.000000
          CHANNELS 3 Zrotation Xrotation Yrotation
          JOINT RightArm
          {
            OFFSET -12.000000 0.000000 0.000000
            CHANNELS 3 Zrotation Xrotation Yrotation
            JOINT RightForeArm
            {
              OFFSET -24.000000 0.000000 0.000000
              CHANNELS 3 Zrotation Xrotation Yrotation
              JOINT RightHand
              {
                OFFSET -22.000000 0.000000 0.000000
                CHANNELS 3 Zrotation Xrotation Yrotation
                JOINT RightHandThumb1
                {
                  OFFSET -1.800000 -1.400000 0.500000
                  CHANNELS 3 Zrotation Xrotation Yrotation
                  JOINT RightHandThumb2
                  {
                    OFFSET -2.400000 0.000000 0.000000
                    CHANNELS 3 Zrotation Xrotation Yrotation
                    JOINT RightHandThumb3
                    {
                      OFFSET -1.900000 0.000000 0.000000
                      CHANNELS 3 Zrotation Xrotation Yrotation
                      End Site
                      {
                        OFFSET -1.600000 0.000000 0.000000
                      }
                    }
                  }
                }
                JOINT RightHandIndex1
                {
                  OFFSET -6.600000 1.200000 0.300000
                  CHANNELS 3 Zrotation Xrotation Yrotation
                  JOINT RightHandIndex2
                  {
                    OFFSET -2.000000 0.000000 0.000000
                    CHANNELS 3 Zrotation Xrotation Yrotation
                    JOINT RightHandIndex3
                    {
                      OFFSET -1.200000 0.000000 0.000000
                      CHANNELS 3 Zrotation Xrotation Yrotation
                      End Site
                      {
                        OFFSET -1.000000 0.000000 0.000000
                      }
                    }
                  }
                }
                JOINT RightHandMiddle1
                {
                  OFFSET -7.200000 0.000000 0.300000
                  CHANNELS 3 Zrotation Xrotation Yrotation
                  JOINT RightHandMiddle2
                  {
                    OFFSET -3.000000 0.000000 0.000000
                    CHANNELS 3 Zrotation Xrotation Yrotation
                    JOINT RightHandMiddle3
                    {
                      OFFSET -2.000000 0.000000 0.000000
                      CHANNELS 3 Zrotation Xrotation Yrotation
                      End Site
                      {
                        OFFSET -1.600000 0.000000 0.000000
                      }
                    }
                  }
                }
                JOINT RightHandRing1
                {
                  OFFSET -7.100000 -1.000000 0.400000
                  CHANNELS 3 Zrotation Xrotation Yrotation
                  JOINT RightHandRing2
                  {
                    OFFSET -2.600000 0.000000 0.000000
                    CHANNELS 3 Zrotation Xrotation Yrotation
                    JOINT RightHandRing3
                    {
                      OFFSET -1.600000 0.000000 0.000000
                      CHANNELS 3 Zrotation Xrotation Yrotation
                      End Site
                      {
                        OFFSET -1.300000 0.000000 0.000000
                      }
                    }
                  }
                }
                JOINT RightHandPinky1
                {
                  OFFSET -6.500000 -2.000000 0.500000
                  CHANNELS 3 Zrotation Xrotation Yrotation
                  JOINT RightHandPinky2
                  {
                    OFFSET -1.900000 0.000000 0.000000
                    CHANNELS 3 Zrotation Xrotation Yrotation
                    JOINT RightHandPinky3
                    {
                      OFFSET -1.400000 0.000000 0.000000
                      CHANNELS 3 Zrotation Xrotation Yrotation
                      End Site
                      {
                        OFFSET -1.300000 0.000000 0.000000
                      }
                    }
                  }
                }
              }
            }
          }
        }
      }
    }
  }
  JOINT LeftUpLeg
  {
    OFFSET 10.000000 -5.000000 0.000000
    CHANNELS 3 Zrotation Xrotation Yrotation
    JOINT LeftLeg
    {
      OFFSET 0.000000 -42.000000 0.000000
      CHANNELS 3 Zrotation Xrotation Yrotation
      JOINT LeftFoot
      {
        OFFSET 0.000000 -42.000000 4.000000
        CHANNELS 3 Zrotation Xrotation Yrotation
        End Site
        {
          OFFSET 0.000000 0.000000 12.000000
        }
      }
    }
  }
  JOINT RightUpLeg
  {
    OFFSET -10.000000 -5.000000 0.000000
    CHANNELS 3 Zrotation Xrotation Yrotation
    JOINT RightLeg
    {
      OFFSET 0.000000 -42.000000 0.000000
      CHANNELS 3 Zrotation Xrotation Yrotation
      JOINT RightFoot
      {
        OFFSET 0.000000 -42.000000 4.000000
        CHANNELS 3 Zrotation Xrotation Yrotation
        End Site
        {
          OFFSET 0.000000 0.000000 12.000000
        }
      }
    }
  }
}
MOTION
Frames: 7
Frame Time: 0.033333
0.0000 95.0000 0.0000 0.0000 0.0000 0.0000 0.0000 0.0000 0.0000 0.0000 0.0000 0.0000 0.0000 0.0000 0.0000 0.0000 0.0000 0.0000 0.0000 0.0000 0.0000 0.0000 0.0000 0.0000 -74.3856 5.2189 6.8739 -13.0048 -7.3945 14.1011 -32.6563 -36.2810 -158.4815 46.0647 -12.7493 -10.8586 4.3534 0.0000 0.0000 5.2338 0.0000 0.0000 -11.1463 1.6192 -13.5701 6.5578 0.0000 0.0000 3.9495 0.0000 0.0000 -7.0687 -0.1503 -7.2051 13.4067 0.0000 0.0000 5.6098 0.0000 0.0000 5.1401 -1.3821 -11.5182 14.4518 0.0000 0.0000 5.2180 0.0000 0.0000 17.5827 -3.3059 -13.8620 5.4159 0.0000 0.0000 4.3414 0.0000 0.0000 0.0000 0.0000 0.0000 91.4685 0.3116 -0.3037 -3.0160 10.0452 9.3112 4.8410 -6.5071 159.0684 -70.6048 -14.3518 -4.7973 3.5025 0.0000 0.0000 15.1941 0.0000 0.0000 -25.4214 0.8574 4.9035 74.3365 0.0000 0.0000 41.8039 0.0000 0.0000 -42.8404 1.5299 8.6704 110.0000 0.0000 0.0000 24.9723 0.0000 0.0000 -49.4475 0.8651 12.1536 110.0000 0.0000 0.0000 28.6451 0.0000 0.0000 -55.9554 -1.9010 10.9567 107.8176 0.0000 0.0000 32.9561 0.0000 0.0000 0.0000 0.0000 0.0000 0.0000 0.0000 0.0000 0.0000 0.0000 0.0000 0.0000 0.0000 0.0000 0.0000 0.0000 0.0000 0.0000 0.0000 0.0000
0.0000 95.0000 0.0000 0.0000 0.0000 0.0000 0.0000 0.0000 0.0000 0.0000 0.0000 0.0000 0.0000 0.0000 0.0000 0.0000 0.0000 0.0000 0.0000 0.0000 0.0000 0.0000 0.0000 0.0000 -74.2385 5.6390 7.4465 -12.7953 -7.3849 14.1650 -32.5925 -36.9042 -159.0261 46.0647 -12.7493 -10.8586 4.3534 0.0000 0.0000 5.2338 0.0000 0.0000 -11.1463 1.6192 -13.5701 6.5578 0.0000 0.0000 3.9495 0.0000 0.0000 -7.0687 -0.1503 -7.2051 13.4067 0.0000 0.0000 5.6098 0.0000 0.0000 5.1401 -1.3821 -11.5182 14.4518 0.0000 0.0000 5.2180 0.0000 0.0000 17.5827 -3.3059 -13.8620 5.4159 0.0000 0.0000 4.3414 0.0000 0.0000 0.0000 0.0000 0.0000 91.2391 0.4924 -0.4819 -2.7976 10.1493 9.4909 4.8229 -6.5529 159.1139 -70.6048 -14.3518 -4.7973 3.5025 0.0000 0.0000 15.1941 0.0000 0.0000 -25.4214 0.8574 4.9035 74.3365 0.0000 0.0000 41.8039 0.0000 0.0000 -42.8404 1.5299 8.6704 110.0000 0.0000 0.0000 24.9723 0.0000 0.0000 -49.4475 0.8651 12.1536 110.0000 0.0000 0.0000 28.6451 0.0000 0.0000 -55.9554 -1.9010 10.9567 107.8176 0.0000 0.0000 32.9561 0.0000 0.0000 0.0000 0.0000 0.0000 0.0000 0.0000 0.0000 0.0000 0.0000 0.0000 0.0000 0.0000 0.0000 0.0000 0.0000 0.0000 0.0000 0.0000 0.0000
0.0000 95.0000 0.0000 0.0000 0.0000 0.0000 0.0000 0.0000 0.0000 0.0000 0.0000 0.0000 0.0000 0.0000 0.0000 0.0000 0.0000 0.0000 0.0000 0.0000 0.0000 0.0000 0.0000 0.0000 -73.8411 6.3005 8.3788 -12.4734 -7.6179 14.7042 -32.4175 -38.3185 -160.2843 46.0647 -12.7493 -10.8586 4.3534 0.0000 0.0000 5.2338 0.0000 0.0000 -11.1463 1.6192 -13.5701 6.5578 0.0000 0.0000 3.9495 0.0000 0.0000 -7.0687 -0.1503 -7.2051 13.4067 0.0000 0.0000 5.6098 0.0000 0.0000 5.1401 -1.3821 -11.5182 14.4518 0.0000 0.0000 5.2180 0.0000 0.0000 17.5827 -3.3059 -13.8620 5.4159 0.0000 0.0000 4.3414 0.0000 0.0000 0.0000 0.0000 0.0000 90.9751 0.7229 -0.7107 -2.6548 9.8618 9.2997 4.9116 -7.0030 159.5878 -70.6048 -14.3518 -4.7973 3.5025 0.0000 0.0000 15.1941 0.0000 0.0000 -25.4214 0.8574 4.9035 74.3365 0.0000 0.0000 41.8039 0.0000 0.0000 -42.8404 1.5299 8.6704 110.0000 0.0000 0.0000 24.9723 0.0000 0.0000 -49.4475 0.8651 12.1536 110.0000 0.0000 0.0000 28.6451 0.0000 0.0000 -55.9554 -1.9010 10.9567 107.8176 0.0000 0.0000 32.9561 0.0000 0.0000 0.0000 0.0000 0.0000 0.0000 0.0000 0.0000 0.0000 0.0000 0.0000 0.0000 0.0000 0.0000 0.0000 0.0000 0.0000 0.0000 0.0000 0.0000
0.0000 95.0000 0.0000 0.0000 0.0000 0.0000 0.0000 0.0000 0.0000 0.0000 0.0000 0.0000 0.0000 0.0000 0.0000 0.0000 0.0000 0.0000 0.0000 0.0000 0.0000 0.0000 0.0000 0.0000 -73.6266 5.9717 7.9730 -12.7035 -7.4945 14.5769 -32.1948 -37.8874 -159.9172 46.0647 -12.7493 -10.8586 4.3534 0.0000 0.0000 5.2338 0.0000 0.0000 -11.1463 1.6192 -13.5701 6.5578 0.0000 0.0000 3.9495 0.0000 0.0000 -7.0687 -0.1503 -7.2051 13.4067 0.0000 0.0000 5.6098 0.0000 0.0000 5.1401 -1.3821 -11.5182 14.4518 0.0000 0.0000 5.2180 0.0000 0.0000 17.5827 -3.3059 -13.8620 5.4159 0.0000 0.0000 4.3414 0.0000 0.0000 0.0000 0.0000 0.0000 90.9916 0.7684 -0.7552 -3.0012 10.1031 9.4739 4.5063 -6.9533 159.4985 -70.6048 -14.3518 -4.7973 3.5025 0.0000 0.0000 15.1941 0.0000 0.0000 -25.4214 0.8574 4.9035 74.3365 0.0000 0.0000 41.8039 0.0000 0.0000 -42.8404 1.5299 8.6704 110.0000 0.0000 0.0000 24.9723 0.0000 0.0000 -49.4475 0.8651 12.1536 110.0000 0.0000 0.0000 28.6451 0.0000 0.0000 -55.9554 -1.9010 10.9567 107.8176 0.0000 0.0000 32.9561 0.0000 0.0000 0.0000 0.0000 0.0000 0.0000 0.0000 0.0000 0.0000 0.0000 0.0000 0.0000 0.0000 0.0000 0.0000 0.0000 0.0000 0.0000 0.0000 0.0000
0.0000 95.0000 0.0000 0.0000 0.0000 0.0000 0.0000 0.0000 0.0000 0.0000 0.0000 0.0000 0.0000 0.0000 0.0000 0.0000 0.0000 0.0000 0.0000 0.0000 0.0000 0.0000 0.0000 0.0000 -73.4398 6.1521 8.2414 -12.3491 -8.0730 15.4619 -31.9079 -39.0691 -161.0018 46.0647 -12.7493 -10.8586 4.3534 0.0000 0.0000 5.2338 0.0000 0.0000 -11.1463 1.6192 -13.5701 6.5578 0.0000 0.0000 3.9495 0.0000 0.0000 -7.0687 -0.1503 -7.2051 13.4067 0.0000 0.0000 5.6098 0.0000 0.0000 5.1401 -1.3821 -11.5182 14.4518 0.0000 0.0000 5.2180 0.0000 0.0000 17.5827 -3.3059 -13.8620 5.4159 0.0000 0.0000 4.3414 0.0000 0.0000 0.0000 0.0000 0.0000 90.7075 0.9490 -0.9373 -2.6165 9.8138 9.3159 4.7805 -7.2859 159.8690 -70.6048 -14.3518 -4.7973 3.5025 0.0000 0.0000 15.1941 0.0000 0.0000 -25.4214 0.8574 4.9035 74.3365 0.0000 0.0000 41.8039 0.0000 0.0000 -42.8404 1.5299 8.6704 110.0000 0.0000 0.0000 24.9723 0.0000 0.0000 -49.4475 0.8651 12.1536 110.0000 0.0000 0.0000 28.6451 0.0000 0.0000 -55.9554 -1.9010 10.9567 107.8176 0.0000 0.0000 32.9561 0.0000 0.0000 0.0000 0.0000 0.0000 0.0000 0.0000 0.0000 0.0000 0.0000 0.0000 0.0000 0.0000 0.0000 0.0000 0.0000 0.0000 0.0000 0.0000 0.0000
0.0000 95.0000 0.0000 0.0000 0.0000 0.0000 0.0000 0.0000 0.0000 0.0000 0.0000 0.0000 0.0000 0.0000 0.0000 0.0000 0.0000 0.0000 0.0000 0.0000 0.0000 0.0000 0.0000 0.0000 -73.4264 6.2930 8.4319 -12.5458 -7.9229 15.3523 -32.1887 -38.9969 -160.9113 46.0647 -12.7493 -10.8586 4.3534 0.0000 0.0000 5.2338 0.0000 0.0000 -11.1463 1.6192 -13.5701 6.5578 0.0000 0.0000 3.9495 0.0000 0.0000 -7.0687 -0.1503 -7.2051 13.4067 0.0000 0.0000 5.6098 0.0000 0.0000 5.1401 -1.3821 -11.5182 14.4518 0.0000 0.0000 5.2180 0.0000 0.0000 17.5827 -3.3059 -13.8620 5.4159 0.0000 0.0000 4.3414 0.0000 0.0000 0.0000 0.0000 0.0000 90.6769 0.9699 -0.9585 -2.6003 9.2217 8.7634 5.0540 -7.8066 160.4309 -70.6048 -14.3518 -4.7973 3.5025 0.0000 0.0000 15.1941 0.0000 0.0000 -25.4214 0.8574 4.9035 74.3365 0.0000 0.0000 41.8039 0.0000 0.0000 -42.8404 1.5299 8.6704 110.0000 0.0000 0.0000 24.9723 0.0000 0.0000 -49.4475 0.8651 12.1536 110.0000 0.0000 0.0000 28.6451 0.0000 0.0000 -55.9554 -1.9010 10.9567 107.8176 0.0000 0.0000 32.9561 0.0000 0.0000 0.0000 0.0000 0.0000 0.0000 0.0000 0.0000 0.0000 0.0000 0.0000 0.0000 0.0000 0.0000 0.0000 0.0000 0.0000 0.0000 0.0000 0.0000
0.0000 95.0000 0.0000 0.0000 0.0000 0.0000 0.0000 0.0000 0.0000 0.0000 0.0000 0.0000 0.0000 0.0000 0.0000 0.0000 0.0000 0.0000 0.0000 0.0000 0.0000 0.0000 0.0000 0.0000 -73.4552 6.0982 8.1671 -12.6275 -8.2221 15.8124 -32.2531 -39.1364 -161.0313 46.0647 -12.7493 -10.8586 4.3534 0.0000 0.0000 5.2338 0.0000 0.0000 -11.1463 1.6192 -13.5701 6.5578 0.0000 0.0000 3.9495 0.0000 0.0000 -7.0687 -0.1503 -7.2051 13.4067 0.0000 0.0000 5.6098 0.0000 0.0000 5.1401 -1.3821 -11.5182 14.4518 0.0000 0.0000 5.2180 0.0000 0.0000 17.5827 -3.3059 -13.8620 5.4159 0.0000 0.0000 4.3414 0.0000 0.0000 0.0000 0.0000 0.0000 90.6342 1.2427 -1.2290 -2.6044 9.0560 8.6266 5.1755 -8.2002 160.8469 -70.6048 -14.3518 -4.7973 3.5025 0.0000 0.0000 15.1941 0.0000 0.0000 -25.4214 0.8574 4.9035 74.3365 0.0000 0.0000 41.8039 0.0000 0.0000 -42.8404 1.5299 8.6704 110.0000 0.0000 0.0000 24.9723 0.0000 0.0000 -49.4475 0.8651 12.1536 110.0000 0.0000 0.0000 28.6451 0.0000 0.0000 -55.9554 -1.9010 10.9567 107.8176 0.0000 0.0000 32.9561 0.0000 0.0000 0.0000 0.0000 0.0000 0.0000 0.0000 0.0000 0.0000 0.0000 0.0000 0.0000 0.0000 0.0000 0.0000 0.0000 0.0000 0.0000 0.0000 0.0000
